P3
# Created by GIMP version 2.10.36 PNM plug-in
64 64
255
142
126
102
143
125
101
99
76
55
76
53
20
83
56
18
110
80
43
147
118
95
175
148
131
179
155
143
182
158
167
179
160
169
176
157
162
177
152
173
179
154
171
178
157
161
182
154
153
181
157
161
183
164
172
186
168
192
187
173
198
195
177
198
201
184
200
203
187
200
214
199
222
228
220
232
235
231
235
239
229
243
232
219
250
218
207
242
216
211
220
225
220
193
228
227
179
228
230
172
235
240
164
238
242
161
238
243
166
233
239
186
235
233
206
240
238
230
244
245
240
249
245
249
252
248
249
251
247
244
248
238
247
235
223
247
224
210
248
221
211
250
214
203
247
208
198
246
207
199
249
204
195
250
202
192
253
200
189
252
197
186
250
193
184
245
189
181
245
189
179
249
186
177
249
184
174
247
183
174
247
182
170
242
177
169
238
171
167
235
170
166
230
95
73
36
119
84
51
99
67
31
95
57
17
122
82
26
156
115
47
143
102
40
140
101
60
126
91
67
158
126
111
173
148
124
176
156
131
172
150
154
164
142
146
156
136
118
147
119
88
149
124
112
184
164
172
187
169
193
192
177
202
194
181
200
197
184
199
210
198
210
235
225
242
247
244
250
249
250
246
249
248
244
250
247
251
245
241
245
245
241
214
244
242
172
234
233
133
234
232
120
241
241
119
238
243
108
236
245
116
238
246
153
237
239
180
243
244
216
211
213
202
151
147
153
188
183
188
189
184
185
226
217
223
251
240
254
233
223
246
218
213
242
212
206
240
210
204
243
209
202
247
207
199
250
204
196
253
199
192
254
196
189
251
191
187
247
187
185
247
186
183
250
184
181
251
183
179
250
182
178
250
182
173
253
176
170
251
171
169
248
169
167
248
107
76
25
119
66
20
101
63
12
97
62
8
114
75
19
144
102
45
124
83
30
123
85
38
99
61
21
126
86
43
151
118
61
160
139
89
176
157
147
173
152
148
152
130
103
153
121
79
133
103
91
177
158
167
188
171
196
193
179
206
192
183
202
198
190
203
212
205
214
197
192
203
173
174
175
190
194
188
176
177
172
228
228
226
251
249
238
251
248
198
238
238
137
219
224
89
218
225
86
223
230
90
227
232
88
228
235
92
229
238
117
227
234
141
241
246
198
213
216
197
158
154
161
89
84
94
65
60
66
130
121
124
239
231
236
241
234
243
218
218
238
212
212
236
211
208
240
209
202
244
207
199
246
201
197
251
196
195
254
195
194
254
192
192
251
188
190
251
185
186
251
183
182
252
180
180
250
180
180
250
180
176
251
175
174
249
172
175
250
167
169
248
122
83
25
132
81
22
119
75
11
101
67
3
100
59
7
129
83
38
102
57
15
91
52
8
95
61
6
119
72
15
130
83
22
114
86
46
150
129
122
180
159
165
173
144
132
174
128
112
168
136
129
185
170
181
186
174
206
187
179
215
189
186
206
188
186
196
191
190
192
84
80
85
48
43
49
90
88
90
161
161
160
231
227
222
253
249
222
246
245
179
220
225
103
205
212
57
211
216
74
219
223
88
223
229
80
221
232
74
222
234
91
220
231
110
228
236
165
246
252
215
247
245
237
156
150
161
55
48
63
76
68
70
219
211
213
247
240
247
221
218
238
215
210
239
211
206
244
206
203
250
204
199
252
199
197
251
196
197
251
194
195
253
192
192
254
190
190
254
190
190
254
188
186
254
184
183
253
182
181
252
180
179
249
174
176
250
171
176
251
171
174
247
119
86
35
137
95
37
132
96
26
123
89
24
108
66
13
116
69
25
101
56
16
95
58
6
125
92
23
169
120
45
170
122
43
110
78
22
115
91
74
158
134
130
161
131
113
183
137
120
152
118
117
185
170
182
189
176
209
187
179
215
181
181
200
183
186
194
165
168
169
45
41
46
45
40
46
169
167
170
244
244
243
252
250
232
249
249
197
224
227
138
198
204
74
194
200
48
207
211
74
219
222
92
227
231
92
225
235
84
222
234
90
217
230
100
213
227
120
227
239
164
246
249
209
224
221
214
144
138
147
87
77
90
210
201
207
249
243
245
220
218
232
212
207
238
209
203
247
205
200
253
202
197
254
199
197
253
195
196
251
193
194
252
191
191
254
191
191
255
189
189
253
188
188
253
186
185
251
185
184
250
183
183
248
178
181
248
173
179
251
175
178
251
85
61
26
116
81
38
104
72
13
109
74
13
111
69
17
121
75
27
118
74
20
144
109
38
152
126
39
153
119
31
191
156
56
158
134
37
101
78
19
113
90
48
119
92
45
161
121
87
165
133
123
179
161
172
182
168
198
191
182
216
178
180
198
174
178
186
110
115
115
91
89
90
170
166
169
230
228
223
244
247
226
238
243
193
211
216
133
199
202
91
189
193
58
191
196
50
199
203
68
213
215
86
225
229
94
225
232
87
222
234
91
218
232
98
218
235
103
213
230
117
229
238
157
242
245
206
240
238
231
163
155
169
183
176
180
241
236
230
220
218
220
207
202
231
204
197
244
202
195
250
201
195
254
198
197
253
193
196
250
192
194
252
191
191
253
191
191
253
189
189
251
188
189
249
187
187
248
186
188
247
186
187
246
182
184
249
177
181
249
177
180
251
70
57
15
86
59
19
108
73
21
110
75
19
116
74
21
128
83
32
123
82
20
151
117
38
154
127
40
110
85
2
160
133
38
197
170
65
124
93
23
97
64
8
114
80
26
141
108
65
140
108
92
162
137
141
165
147
169
188
178
204
175
171
191
162
161
168
74
74
70
168
166
161
227
225
216
233
234
206
228
233
182
206
217
130
190
199
83
194
195
63
195
198
55
194
199
55
200
204
65
212
216
77
227
230
87
227
232
88
224
232
93
221
235
99
221
236
101
218
233
98
218
229
113
228
235
165
237
241
214
211
214
204
217
220
208
226
230
203
222
222
204
207
206
220
201
197
238
202
195
247
199
196
252
195
197
253
191
195
251
190
194
255
189
192
253
190
192
251
189
190
250
186
190
246
186
190
246
186
190
248
184
189
248
181
184
253
177
182
246
175
182
248
111
87
43
94
64
21
115
82
24
124
90
25
127
87
23
120
78
16
109
73
6
168
133
43
173
143
39
115
90
7
132
112
33
207
183
83
181
151
67
100
65
4
98
63
9
124
90
58
166
135
112
149
126
111
153
137
150
191
181
204
168
165
180
147
147
148
147
148
137
190
184
166
208
206
161
208
209
147
194
199
114
187
198
78
185
197
55
187
195
48
189
198
48
195
201
55
204
209
65
213
218
75
227
231
83
227
233
84
224
234
88
223
234
90
222
232
89
222
233
89
222
232
93
212
221
115
225
232
161
226
232
181
224
230
184
217
222
164
231
231
174
224
221
200
202
197
228
198
196
246
196
197
252
195
197
252
194
193
250
194
192
254
190
193
253
188
194
252
188
194
252
188
190
241
195
193
222
198
189
222
192
190
229
180
182
240
174
183
244
176
183
249
127
94
54
97
68
16
108
75
13
126
90
24
131
94
26
120
85
16
120
89
10
183
150
47
193
162
44
124
101
9
114
96
16
190
172
65
203
182
76
141
119
36
91
61
1
101
68
32
153
121
90
134
111
87
155
138
142
187
177
190
163
162
165
117
120
106
154
158
128
179
176
128
192
194
112
187
193
92
186
196
71
188
200
62
186
199
52
187
197
55
187
196
57
196
203
59
205
210
64
215
220
74
226
231
81
227
233
83
224
233
84
227
235
87
227
234
86
226
233
85
227
233
92
222
229
99
223
229
111
222
223
127
220
219
134
230
229
131
245
242
125
238
229
165
212
202
218
198
200
248
193
201
252
191
194
252
192
192
249
193
192
252
187
192
249
184
191
249
186
192
246
197
189
228
203
186
180
210
190
171
202
189
189
197
190
231
178
180
240
172
180
244
111
79
32
108
86
27
105
71
25
106
65
24
105
70
19
103
74
14
124
97
13
200
171
63
214
185
62
152
129
27
133
115
22
183
162
52
195
175
61
192
170
67
149
124
42
110
79
15
119
85
42
111
82
55
131
108
100
170
157
150
174
173
142
136
138
83
149
155
77
171
174
81
179
184
77
187
194
74
191
201
65
190
201
57
186
199
50
185
195
57
190
196
61
204
209
64
211
216
70
215
220
74
221
227
79
227
233
85
228
234
86
229
235
87
228
234
86
227
233
85
228
235
81
226
232
81
228
233
85
227
232
88
226
230
97
233
238
99
245
246
106
241
235
142
219
215
196
196
200
242
186
200
247
187
194
253
187
192
250
187
193
251
186
194
249
188
190
244
193
188
224
182
168
180
182
162
140
155
136
104
198
182
168
198
188
210
183
183
229
173
180
239
88
62
10
89
71
17
96
65
29
85
47
19
82
50
13
90
63
18
95
70
4
172
146
56
203
174
69
170
146
51
139
119
33
146
123
32
169
148
41
191
171
58
198
175
72
135
109
27
98
68
3
111
78
30
142
114
76
168
151
106
184
182
104
181
182
81
171
176
52
184
189
65
186
191
62
191
197
61
190
198
53
188
195
50
189
199
52
185
196
58
192
198
62
207
212
67
214
219
73
215
220
74
223
229
82
231
237
89
234
240
92
229
235
87
227
233
85
226
232
83
227
235
73
227
236
69
226
236
64
229
239
64
228
236
72
229
237
71
239
235
89
236
228
118
220
219
164
194
200
230
184
197
244
185
194
252
182
191
254
182
191
254
184
192
251
194
191
234
188
174
179
185
165
137
156
141
102
187
162
122
218
194
162
200
186
178
192
185
214
182
185
240
83
53
21
82
63
25
97
71
28
90
58
18
72
43
3
84
60
17
89
64
12
100
73
11
109
79
11
99
73
7
92
67
6
96
69
6
112
87
6
148
127
29
177
155
51
183
158
60
149
119
32
112
83
2
131
106
31
164
147
61
182
179
67
179
180
48
176
178
39
186
189
56
190
193
58
192
196
55
192
198
50
189
195
46
190
197
48
191
199
56
201
207
64
208
213
67
216
221
75
222
227
81
231
236
89
232
238
90
233
239
91
231
237
87
230
236
83
226
233
78
229
234
78
230
236
76
231
237
75
231
237
76
229
234
78
228
232
77
235
226
88
232
222
107
219
218
145
197
202
213
182
192
242
183
193
247
180
191
250
180
188
248
189
189
244
186
176
203
176
154
136
187
163
116
211
192
145
205
182
137
195
165
114
195
177
143
196
185
197
188
184
231
64
31
5
71
51
19
92
68
22
109
80
34
79
54
11
74
52
12
92
69
29
90
61
23
92
61
22
87
58
17
86
57
16
99
69
25
101
72
16
108
82
7
134
111
24
176
152
56
188
163
59
166
148
36
172
159
50
184
176
57
178
178
43
176
178
31
173
175
35
181
184
50
185
189
50
188
193
50
190
195
51
191
197
48
191
197
47
193
199
51
204
210
62
213
219
72
218
223
77
225
230
84
231
237
90
233
239
91
235
241
93
235
241
90
231
238
82
231
238
78
233
237
82
234
238
83
232
236
82
233
235
92
232
233
90
229
230
87
234
226
88
232
221
96
220
217
129
203
205
189
187
190
234
189
190
245
188
189
237
189
188
219
188
182
200
165
153
147
169
149
113
191
169
117
195
171
117
181
155
99
202
168
100
204
183
127
185
173
171
188
180
224
104
73
43
82
63
26
90
69
16
89
65
17
63
43
2
64
47
7
69
50
15
84
59
26
70
41
9
82
52
18
84
54
19
89
57
23
81
50
10
88
58
7
96
67
3
132
110
23
162
148
35
168
161
40
179
176
54
177
182
42
173
178
20
171
176
14
171
174
28
177
181
46
185
190
50
190
195
54
191
195
57
195
200
56
196
202
54
193
199
51
202
208
60
214
219
72
219
224
78
226
231
85
235
240
93
236
242
94
235
241
93
235
241
90
235
242
86
233
241
81
233
237
82
233
237
82
231
235
81
233
235
88
236
239
92
230
233
87
228
227
82
232
220
84
227
219
105
213
213
149
199
198
209
199
189
226
199
185
206
193
178
178
175
163
145
149
138
107
143
129
90
176
156
113
209
180
132
210
173
118
227
189
113
218
196
118
168
153
142
184
176
220
120
87
47
77
56
14
83
57
14
93
69
26
85
64
27
65
48
10
65
50
10
64
43
8
63
40
6
70
46
4
77
50
7
102
71
32
75
43
6
85
54
9
98
67
9
105
83
4
119
110
9
144
144
34
166
170
46
168
175
32
169
175
10
164
169
4
165
167
23
177
177
39
187
188
49
195
195
56
196
196
57
195
199
58
200
207
63
199
207
62
205
213
69
215
222
77
220
225
79
226
231
85
233
238
90
235
241
91
237
243
93
237
243
90
235
242
87
231
238
82
231
236
77
231
236
77
235
240
80
234
237
76
229
235
75
224
231
77
225
222
77
227
217
75
226
216
87
219
215
117
207
199
168
201
183
181
195
172
165
178
159
140
158
145
111
124
111
80
107
92
71
122
98
77
153
128
98
198
165
117
214
178
109
189
167
97
148
133
122
180
173
208
115
80
37
70
48
4
76
49
9
85
61
21
83
62
27
60
43
7
67
52
13
63
42
9
56
33
2
79
58
13
101
76
29
102
72
26
88
59
4
94
66
5
110
80
17
114
92
16
105
96
2
132
130
24
160
160
36
165
168
26
165
169
17
162
166
11
165
166
25
174
173
31
182
181
39
193
192
51
199
197
58
198
202
61
197
205
66
203
210
76
206
214
80
216
222
83
224
229
87
227
232
90
230
235
91
236
241
98
239
244
100
236
241
93
234
240
90
234
240
90
239
235
85
239
235
84
243
239
88
239
237
82
228
231
78
221
224
78
222
217
77
223
213
75
222
207
79
226
213
82
218
207
97
200
186
110
180
164
118
153
139
102
120
108
72
112
97
82
125
104
119
149
127
145
129
113
122
135
111
99
142
106
84
129
102
76
139
119
111
135
124
132
94
60
15
90
67
23
92
64
25
76
52
11
60
39
2
57
40
4
69
54
15
68
47
13
62
40
7
82
60
16
104
78
31
107
77
31
98
69
15
93
65
6
102
72
9
104
82
6
103
93
0
127
120
16
158
153
31
167
165
25
159
162
11
160
164
3
168
171
19
179
179
32
183
183
36
189
189
44
193
191
52
197
201
60
196
204
63
205
213
73
208
216
76
216
222
83
225
229
91
231
235
97
232
236
100
236
239
105
237
240
107
235
240
97
240
245
100
236
241
96
236
236
93
235
235
92
239
237
94
240
232
88
232
227
86
222
221
81
219
215
65
220
211
63
216
203
70
223
211
78
204
194
81
178
164
104
145
129
104
119
106
89
116
103
86
129
112
107
139
118
133
181
156
182
143
124
144
133
106
105
126
94
76
119
91
75
131
105
92
131
114
108
108
68
25
89
61
13
89
57
13
90
59
19
76
54
14
61
45
6
68
50
14
76
58
22
77
58
21
84
64
24
103
80
39
85
57
17
90
59
13
106
77
21
93
68
5
96
79
2
101
92
1
131
124
18
159
154
32
161
158
23
156
160
10
154
159
3
157
162
3
167
168
14
174
174
25
184
184
39
188
191
44
194
198
51
193
199
50
202
211
59
204
213
61
213
219
76
225
228
91
232
235
99
236
239
101
239
242
103
239
242
103
240
240
99
243
243
98
237
238
90
230
236
86
231
236
86
234
238
89
235
229
78
227
221
72
223
214
80
220
209
60
217
209
41
202
194
39
215
213
64
196
196
88
139
133
98
140
125
136
111
93
107
106
90
87
105
88
80
105
81
85
131
106
120
136
109
117
133
102
98
137
98
83
132
97
78
128
100
76
123
98
83
141
97
49
115
83
33
93
57
7
90
56
8
76
50
8
57
38
2
64
46
10
62
44
8
66
48
10
68
48
9
83
61
22
83
54
15
95
64
18
99
70
14
102
80
10
105
90
4
117
108
7
138
131
23
156
150
39
153
147
35
152
148
27
150
146
20
149
146
13
154
150
4
161
157
11
170
166
20
176
175
28
185
184
37
183
184
35
190
191
40
194
195
44
200
199
52
215
211
69
229
225
82
236
232
88
239
235
89
240
236
91
242
238
90
240
237
84
237
234
78
229
232
73
229
233
74
226
229
71
227
217
65
220
210
61
220
207
76
215
203
61
211
203
32
187
180
14
214
213
57
211
210
110
182
175
151
165
150
169
106
86
111
99
80
79
110
91
76
99
73
65
110
83
80
132
102
97
132
98
89
124
88
73
119
83
64
125
92
68
126
97
78
146
99
48
143
108
52
124
85
30
140
103
48
110
81
39
62
39
6
51
33
0
60
42
6
72
54
16
71
52
10
70
47
7
70
41
4
99
69
24
112
83
27
103
82
6
137
125
30
154
147
37
135
129
19
130
122
25
135
124
39
138
122
45
141
125
43
144
129
42
141
126
28
148
134
29
142
130
20
149
138
28
154
143
34
158
146
36
161
147
35
164
151
38
173
157
45
187
170
57
198
180
68
211
194
79
217
200
83
219
202
86
223
210
90
222
210
86
222
210
82
225
204
79
229
206
82
220
198
74
210
191
61
206
187
60
207
187
73
208
195
58
200
192
21
185
180
7
217
219
51
221
225
102
196
193
149
144
130
141
108
89
105
104
83
79
112
88
70
110
82
62
126
97
77
118
87
68
119
83
66
119
88
71
122
87
68
132
93
71
121
88
66
129
88
30
131
90
29
139
99
34
135
99
41
116
88
42
68
46
9
52
33
2
59
45
12
57
44
9
81
62
18
93
70
23
80
51
10
90
59
18
101
73
15
114
97
10
166
158
48
175
173
55
139
135
27
99
90
3
97
84
24
99
78
34
96
70
27
111
81
37
115
90
38
114
91
33
104
81
21
102
79
22
100
77
21
104
79
23
104
75
20
104
74
19
111
82
24
125
96
35
129
101
40
137
108
46
142
115
51
143
118
53
155
126
61
162
137
66
171
136
63
171
130
60
184
130
61
175
126
53
146
106
34
137
105
32
163
139
46
192
177
51
185
176
17
201
196
25
221
225
43
226
234
84
193
194
120
128
116
102
111
91
94
108
83
76
117
90
81
118
91
82
124
92
82
130
96
84
119
87
69
120
92
76
125
93
75
144
107
88
133
96
83
141
97
42
127
84
25
127
85
22
105
69
15
83
53
11
61
38
5
62
42
11
56
42
8
55
44
7
74
61
12
84
67
14
77
52
7
88
59
14
86
61
1
127
112
20
168
161
44
173
172
52
156
154
41
117
110
26
68
55
6
50
24
3
51
17
6
54
15
10
54
15
10
55
18
7
54
17
4
57
16
8
58
16
9
58
15
11
56
10
12
54
8
10
56
11
9
58
14
8
56
12
6
53
13
3
53
12
2
59
12
4
62
15
3
58
16
0
73
20
2
94
15
6
103
14
6
94
17
1
80
18
4
78
35
3
119
94
20
158
143
21
178
168
12
219
212
42
232
232
45
230
237
68
204
205
104
121
107
77
108
83
86
102
75
76
107
79
79
105
76
77
112
82
81
119
90
84
122
93
83
118
90
76
113
81
64
124
88
69
125
92
78
104
70
29
96
64
18
96
63
15
92
57
9
87
58
19
63
40
9
54
35
3
51
37
4
46
35
3
53
42
4
65
51
10
66
51
15
66
53
15
71
61
6
125
113
32
159
152
38
168
168
31
172
164
26
162
147
41
115
96
26
64
41
3
52
21
2
57
15
12
60
13
14
59
14
11
60
14
9
64
11
12
64
11
12
67
13
14
65
11
13
66
12
14
66
14
12
65
13
7
65
14
6
67
12
4
77
11
6
86
7
5
91
2
2
93
5
1
104
6
0
117
3
4
123
8
3
118
23
5
109
45
7
160
123
52
193
175
65
212
200
61
212
204
33
238
230
51
238
235
47
236
241
53
215
214
93
120
104
63
107
80
81
108
78
86
109
80
89
109
80
89
107
78
84
117
89
90
128
101
97
122
94
80
117
85
68
125
90
72
119
90
75
75
43
10
67
47
9
77
52
15
72
48
8
67
42
6
68
45
13
63
47
14
62
46
13
57
44
10
56
48
12
50
42
5
57
47
11
53
40
5
74
65
11
122
116
35
142
137
27
162
154
25
172
159
29
175
161
48
151
139
45
109
95
28
68
42
3
73
14
13
78
7
10
75
9
10
76
13
12
79
15
16
81
13
15
86
11
15
87
5
11
88
6
13
89
11
15
93
17
16
97
17
13
106
17
16
121
18
19
136
20
20
157
32
33
161
31
27
159
26
14
182
34
25
197
58
33
187
79
31
203
142
63
216
192
81
217
209
75
229
222
70
236
227
57
243
234
49
243
239
56
238
239
49
222
217
93
124
106
72
117
94
86
114
86
94
115
85
95
118
88
98
116
87
92
114
86
86
117
89
84
122
90
77
127
94
81
123
91
77
106
83
70
69
41
10
61
46
10
74
53
19
67
46
9
70
48
17
59
39
10
54
38
5
58
42
9
57
44
13
57
48
18
48
39
8
47
36
5
45
32
1
80
70
22
126
119
42
132
126
22
145
136
21
158
146
28
163
156
34
159
156
33
148
141
38
121
95
24
98
34
2
101
13
6
94
9
8
88
10
10
87
15
9
91
15
10
99
12
10
105
4
8
111
3
9
114
3
8
126
10
13
142
14
16
156
18
20
181
32
34
204
40
43
216
43
47
215
43
39
219
52
37
230
71
39
222
87
34
234
145
62
236
194
74
224
212
70
228
226
72
235
229
72
241
231
63
245
234
59
244
238
65
234
236
46
226
221
95
141
123
86
117
95
83
119
92
95
111
82
87
110
81
86
114
85
86
120
92
87
118
91
81
110
83
73
126
98
88
183
157
147
183
166
156
64
42
9
58
46
12
55
36
6
64
44
13
95
76
46
72
54
25
55
38
7
53
37
7
46
33
5
45
35
9
45
35
8
50
38
11
45
31
4
83
73
28
125
117
44
127
119
24
131
121
20
140
129
23
145
142
16
158
163
16
164
164
35
173
147
51
154
87
30
136
39
6
126
20
3
111
13
3
103
14
3
108
16
6
113
17
9
122
16
10
133
15
13
145
13
15
168
21
25
192
27
32
217
42
44
234
49
50
239
42
43
242
46
46
243
55
45
245
74
50
232
100
50
234
145
68
245
199
92
239
216
81
233
228
80
231
230
74
233
228
69
234
224
60
239
227
62
241
233
71
234
235
49
225
220
93
124
109
63
122
101
86
106
83
77
118
92
91
115
86
88
108
79
75
117
89
80
127
100
88
117
91
83
100
74
66
184
161
154
249
233
224
72
51
10
56
41
4
63
38
6
68
41
7
79
57
22
60
41
6
50
31
3
49
33
9
45
34
11
45
35
10
43
33
8
42
30
3
45
31
3
91
81
34
129
118
49
126
116
27
122
113
19
127
114
20
131
124
8
145
147
6
163
167
26
181
163
46
202
147
59
180
89
31
173
38
8
162
23
6
158
14
4
156
7
4
151
10
5
156
20
12
165
25
18
180
25
24
203
35
37
222
41
42
234
43
40
242
49
41
247
57
44
249
66
53
242
73
49
231
96
50
230
153
74
236
207
99
229
226
97
230
230
91
235
229
88
233
224
80
229
221
76
234
221
73
237
223
73
238
228
78
231
232
50
221
218
90
118
108
48
92
73
57
124
107
90
128
106
97
113
85
83
128
98
92
127
97
89
127
97
89
128
100
91
114
87
78
118
93
84
224
207
199
88
57
12
74
52
1
102
71
19
105
71
19
114
84
38
91
65
27
49
30
2
40
25
1
42
31
7
41
31
5
46
36
11
45
34
6
48
35
2
98
89
36
129
119
47
127
118
28
122
114
19
121
110
17
127
115
9
143
130
9
155
154
16
180
175
41
202
176
52
217
155
58
224
105
40
208
65
21
218
49
28
225
42
38
212
34
36
203
38
31
206
45
37
219
48
43
230
54
49
239
57
48
245
61
49
248
75
56
242
87
57
234
92
58
224
121
60
243
172
85
247
217
102
233
234
101
221
233
92
227
230
88
228
221
86
228
214
85
223
212
87
227
211
83
231
214
83
232
221
80
231
232
52
222
220
85
135
126
56
83
66
39
103
86
63
119
98
84
146
119
111
116
87
80
124
94
86
130
100
92
133
102
94
124
92
85
110
79
71
151
131
124
116
78
28
106
75
17
124
91
27
124
87
22
111
77
26
76
47
8
48
27
1
43
27
2
44
31
7
43
31
6
44
32
5
49
36
5
60
48
12
105
97
41
125
117
39
127
117
27
123
111
20
118
103
17
126
108
15
139
118
16
145
138
13
158
155
23
186
176
44
216
185
64
238
169
68
230
129
56
234
92
48
247
80
60
248
74
67
242
75
65
240
77
65
246
79
67
248
79
64
250
80
62
249
85
60
238
95
62
223
108
63
234
143
81
239
196
101
251
226
107
251
233
99
237
231
91
230
225
84
231
220
86
222
211
83
216
205
84
210
198
84
214
196
82
226
205
91
230
216
85
229
227
54
227
224
83
189
180
100
93
81
39
92
77
46
107
88
71
132
108
99
131
101
96
133
102
97
131
101
94
132
97
92
132
97
89
114
80
70
97
72
65
119
79
28
114
79
23
106
76
13
107
78
14
96
70
17
66
42
2
76
53
21
70
51
22
45
30
2
46
32
5
44
30
4
51
39
12
68
58
25
108
102
44
122
116
37
122
112
31
120
105
26
120
98
21
126
104
18
136
116
20
144
135
16
152
144
19
156
149
21
177
168
39
212
189
61
241
187
82
238
163
75
233
130
66
238
107
71
251
102
88
252
96
85
254
94
87
253
100
91
243
104
85
232
112
77
228
132
76
238
169
88
253
207
105
245
231
107
243
235
97
241
228
91
235
222
85
229
216
80
223
208
80
214
199
76
209
193
77
199
185
81
204
184
82
217
194
93
229
210
92
228
220
70
227
224
69
220
217
96
183
179
95
85
74
23
84
65
50
107
85
87
124
96
96
130
101
97
120
91
84
108
74
69
126
92
82
130
97
83
110
81
71
115
80
33
107
77
24
102
75
18
110
79
26
82
54
5
85
59
13
106
80
40
99
76
39
75
58
22
55
42
10
56
42
20
56
44
27
49
42
17
99
97
38
125
121
40
127
117
35
122
107
26
125
103
26
131
109
23
138
118
23
142
130
22
145
136
21
147
138
20
152
149
23
166
165
29
208
189
64
242
204
87
249
185
90
238
151
80
234
130
80
241
120
86
245
117
90
240
125
90
228
137
90
231
165
99
247
200
110
254
226
108
247
233
103
240
232
95
235
227
85
229
216
82
223
209
76
219
205
73
213
198
70
205
189
67
201
186
69
196
183
77
207
187
84
221
198
92
226
206
90
227
217
79
226
224
61
215
220
45
231
236
97
136
132
48
85
69
36
87
65
68
104
80
80
89
65
61
88
63
54
113
79
74
120
86
77
131
98
84
136
103
90
100
67
22
97
70
19
94
63
10
95
59
10
94
60
11
101
69
21
86
56
10
77
53
9
81
61
19
86
70
37
63
50
34
35
26
16
29
24
1
106
103
45
126
122
40
130
120
26
124
107
16
128
106
23
131
109
23
133
112
21
135
123
20
138
127
19
139
129
17
139
135
19
138
145
17
158
158
30
188
180
54
225
198
85
244
204
100
244
193
100
241
174
98
233
158
89
234
170
90
244
195
99
252
219
109
250
233
111
238
232
100
227
226
88
225
216
80
217
199
66
206
190
59
199
183
53
200
184
54
197
178
52
200
180
57
204
184
64
203
186
71
212
190
76
223
199
84
224
204
80
229
218
71
232
228
67
228
234
44
240
245
71
205
200
79
107
94
26
78
60
43
95
76
69
104
82
81
116
95
88
144
114
108
122
88
79
129
93
80
140
107
92
83
51
9
82
58
9
97
66
16
107
74
24
99
66
15
97
64
14
87
56
8
71
45
1
76
55
11
74
58
31
37
28
18
23
21
2
70
68
30
125
122
59
129
124
40
132
123
23
133
114
18
134
113
22
134
113
23
131
110
22
127
114
19
130
118
18
133
121
17
130
123
16
126
131
16
140
141
20
149
150
17
168
161
30
196
184
55
216
198
78
239
212
103
244
212
109
249
221
110
248
231
102
243
230
91
232
223
82
216
214
73
203
200
64
188
178
46
182
164
35
180
163
33
180
163
33
187
170
40
197
177
47
211
191
61
219
199
70
218
199
73
219
197
72
226
201
77
227
208
74
233
222
67
233
229
60
234
238
34
241
244
41
243
239
83
163
153
54
87
73
35
89
70
59
86
64
66
76
56
52
102
76
69
126
94
84
151
116
103
114
81
67
97
69
30
73
53
7
80
52
4
99
66
16
109
76
26
98
66
16
93
62
15
99
74
29
99
80
38
47
34
15
26
24
13
61
63
25
104
104
48
126
124
52
134
131
41
152
144
40
161
143
42
148
128
26
140
120
25
132
111
24
127
112
26
126
113
22
128
115
21
129
115
24
121
119
20
129
122
18
134
129
11
141
139
9
155
153
17
162
158
28
176
170
50
193
183
69
203
191
70
204
194
59
204
194
50
201
190
51
194
181
52
181
163
42
163
144
24
160
142
21
161
144
15
171
154
24
187
170
39
206
187
47
217
198
58
222
204
64
224
208
68
227
206
67
233
211
71
234
217
68
236
225
64
237
230
60
239
237
36
240
241
20
243
243
51
202
197
65
99
89
23
96
77
63
105
83
85
108
88
83
113
91
83
115
89
77
133
103
88
129
97
82
85
60
22
73
56
12
83
58
12
102
73
23
102
73
25
80
51
3
67
42
2
94
73
34
107
90
53
43
33
21
66
63
50
85
86
37
110
112
45
124
123
46
142
136
50
174
164
60
183
169
60
155
137
30
143
122
26
135
113
30
125
109
30
122
107
23
121
108
18
122
111
26
118
110
23
117
107
19
121
111
15
124
116
11
131
123
12
135
125
14
136
127
18
143
131
24
148
135
24
152
139
19
153
139
15
157
140
23
161
142
34
156
138
34
145
129
19
146
132
14
156
142
25
170
157
30
187
175
38
208
189
48
218
199
54
224
206
59
229
212
64
231
214
63
237
217
64
238
219
61
238
225
60
235
229
55
238
236
44
242
239
27
246
244
37
234
228
72
123
110
30
76
57
39
69
50
51
79
65
59
101
82
74
117
93
82
118
90
77
118
89
77
83
63
19
81
68
17
90
69
18
106
78
28
104
76
27
85
58
10
81
58
20
105
84
52
87
70
44
52
48
38
89
91
71
89
92
33
111
114
41
118
118
36
138
131
41
171
162
51
187
176
56
156
143
32
137
121
24
131
113
29
126
110
32
116
101
22
112
98
17
114
103
23
118
107
27
116
105
26
115
104
27
116
105
27
117
104
25
119
104
23
120
105
24
121
105
23
120
105
20
120
106
20
123
106
21
126
108
24
134
115
33
133
118
29
131
118
20
138
127
20
150
138
20
160
150
19
174
166
22
196
187
44
210
201
52
219
209
57
231
215
63
233
217
61
237
221
60
236
221
55
234
225
52
230
226
50
231
228
44
242
237
35
247
244
34
243
238
71
156
143
53
100
82
62
83
65
69
83
68
73
88
72
68
107
87
79
117
93
82
98
75
64
58
40
6
58
49
7
73
54
10
94
66
16
94
66
16
87
60
12
95
72
31
82
59
34
48
31
16
69
70
53
73
81
48
85
90
27
103
107
29
111
111
25
130
122
34
160
150
45
182
170
57
158
148
38
138
127
28
133
119
34
125
110
30
118
102
28
113
96
27
110
98
21
113
102
25
117
105
28
116
104
30
113
99
32
114
98
33
116
99
30
116
99
30
112
98
25
110
97
25
111
97
31
115
98
36
116
99
33
117
101
29
115
102
25
122
111
26
129
120
25
138
125
19
144
132
11
160
149
15
192
175
35
213
196
50
222
206
56
231
215
58
234
218
58
235
220
60
233
221
65
228
222
60
226
223
57
228
224
49
242
235
42
245
242
30
239
235
60
184
172
73
104
87
52
71
54
48
75
62
62
72
60
58
80
63
58
94
74
67
89
70
63
86
62
30
74
62
25
81
62
26
90
62
16
88
56
7
97
65
17
108
81
40
76
55
31
38
24
9
76
77
59
64
72
40
85
91
30
98
102
26
108
108
24
124
122
31
146
142
39
176
167
64
148
140
41
131
123
26
132
122
31
125
114
32
118
106
29
114
102
30
109
97
24
113
101
28
116
104
30
116
104
30
113
100
32
113
99
34
113
99
33
113
99
33
112
99
30
109
96
27
108
94
31
105
90
29
104
90
27
105
91
27
108
94
29
114
102
26
118
108
18
126
107
11
137
120
6
159
144
13
191
175
33
214
195
55
227
207
56
232
217
53
236
225
58
231
223
66
225
217
69
222
214
71
223
213
63
232
222
51
239
231
44
243
241
32
239
238
51
199
188
84
123
104
63
95
76
65
76
60
58
79
64
59
86
67
63
106
83
80
96
74
68
89
60
26
74
58
19
77
56
19
90
63
13
103
72
20
120
87
35
112
85
40
86
66
38
56
43
26
72
72
54
57
64
33
81
86
28
93
95
25
101
100
21
118
116
29
137
134
34
170
161
63
141
132
38
126
117
26
128
118
30
123
112
31
116
104
27
114
102
30
112
99
31
116
103
34
117
105
35
115
102
32
111
97
34
111
97
36
111
97
35
111
97
35
109
96
31
106
92
28
103
88
30
101
86
30
100
85
30
99
84
29
99
84
28
104
90
24
108
97
16
121
102
7
136
118
5
164
150
18
192
177
35
214
195
52
226
208
46
229
219
45
228
222
52
223
216
65
216
206
72
209
199
71
215
203
63
234
223
57
237
230
38
239
237
27
237
235
51
206
194
96
142
123
83
92
72
60
90
74
71
92
73
67
109
87
80
97
69
65
103
76
67
91
59
21
72
51
8
73
48
7
114
87
33
136
104
47
135
103
44
107
81
32
70
51
17
42
29
9
59
59
41
64
70
40
74
78
22
88
90
24
93
92
18
110
108
26
128
125
30
156
147
54
131
121
31
126
116
28
122
112
29
117
106
26
109
98
21
112
100
29
110
97
32
112
99
35
112
99
34
109
96
31
104
90
31
104
90
32
104
90
32
104
90
32
103
89
29
100
86
27
98
83
29
98
82
34
98
82
36
96
80
34
96
81
34
99
84
26
106
93
20
126
106
13
149
132
19
177
163
31
201
186
45
217
199
50
226
211
39
228
224
39
224
222
50
213
209
64
209
197
77
193
180
66
217
204
73
232
220
57
237
230
36
238
235
26
236
233
55
184
171
80
158
139
101
88
68
56
80
63
60
86
64
56
94
67
60
100
68
61
128
97
87
115
82
39
114
82
36
129
95
44
137
98
42
139
100
39
140
103
40
109
81
29
71
54
18
47
39
14
55
52
35
79
77
50
70
70
19
83
83
22
88
89
23
97
99
25
116
116
28
129
125
40
121
114
29
121
113
31
116
107
30
109
99
28
104
94
23
105
96
25
105
98
27
100
92
26
98
90
26
100
93
25
98
90
28
97
89
29
97
89
28
97
89
28
96
87
29
93
83
27
91
81
25
90
80
29
89
78
29
89
79
30
89
81
32
99
89
26
117
104
24
147
131
37
171
158
40
194
185
44
211
197
55
221
201
57
225
216
49
227
221
48
221
215
64
204
198
69
186
174
69
192
177
64
225
211
67
236
226
48
239
233
37
237
233
33
236
231
66
191
177
94
172
153
117
100
82
62
90
74
65
99
76
71
121
93
89
103
72
69
113
82
75
138
100
53
146
108
57
150
113
57
135
92
28
144
101
33
146
105
38
123
91
36
77
56
16
49
38
12
46
38
20
75
68
41
63
60
13
77
77
20
84
84
22
86
87
19
108
108
25
117
113
32
117
109
29
120
111
34
113
103
31
107
97
26
104
94
24
103
94
23
105
98
27
95
88
21
89
81
18
94
86
24
95
87
28
95
86
31
96
87
31
96
87
32
97
88
34
95
85
32
93
83
31
90
81
25
88
80
22
90
81
23
94
87
25
110
103
25
139
129
34
169
156
46
188
177
50
205
197
53
215
202
58
225
204
66
225
215
61
220
213
63
206
200
73
186
181
71
167
155
54
207
194
70
230
221
54
238
233
33
240
234
34
239
234
41
232
225
69
194
178
104
175
156
122
87
69
49
82
66
58
62
45
38
95
74
68
99
73
68
80
54
47
132
88
39
142
100
46
145
102
41
148
102
30
137
92
17
139
95
23
136
99
43
94
70
28
71
56
29
74
63
47
69
60
34
69
64
22
72
70
18
80
80
22
80
80
16
93
92
15
113
108
32
118
111
35
116
108
35
111
103
33
105
95
25
102
93
23
100
91
21
100
93
23
96
88
23
91
83
21
89
82
23
91
82
27
92
83
30
92
83
31
93
84
33
96
86
36
94
84
35
91
81
32
91
83
25
92
85
20
98
91
24
107
103
27
134
129
39
159
151
45
182
172
47
199
190
52
208
201
54
218
204
60
228
208
74
220
209
71
206
200
71
185
180
74
154
147
52
184
172
72
223
212
76
233
226
36
237
235
14
235
229
25
237
230
44
222
213
67
187
169
105
182
162
130
107
88
67
110
95
84
78
63
57
58
40
35
69
47
42
95
73
68
113
76
27
132
92
35
142
100
35
151
107
35
138
93
28
131
86
26
128
89
36
101
74
32
73
55
23
74
58
34
59
49
19
76
69
25
67
62
14
73
74
18
78
79
19
79
78
11
102
96
22
110
107
33
111
109
35
108
106
32
105
98
30
101
94
26
100
93
26
96
88
27
89
80
24
82
74
21
79
73
19
81
76
21
84
79
26
87
81
30
89
83
32
91
84
31
90
82
29
87
79
26
91
83
27
95
88
24
105
100
25
118
115
31
145
140
46
162
154
48
183
172
48
199
191
49
206
197
55
219
203
63
222
210
76
212
201
86
189
181
78
158
148
61
162
151
56
212
199
82
231
220
61
236
227
29
244
239
12
239
232
20
240
230
56
218
207
76
214
196
132
177
158
124
89
71
48
94
80
65
67
51
49
88
71
71
83
67
66
110
88
83
100
83
33
118
91
34
134
97
36
137
95
36
137
95
41
122
80
30
120
85
37
99
71
27
88
64
22
86
63
23
97
79
40
82
70
28
72
66
22
67
68
17
74
78
22
77
80
17
82
81
9
105
103
30
107
105
31
108
106
32
103
96
28
101
94
26
103
96
29
100
91
30
93
83
27
87
78
25
83
78
23
80
75
20
80
75
20
81
76
20
83
78
23
87
77
25
91
76
26
94
80
30
98
85
31
103
91
29
113
103
31
128
119
38
146
137
44
164
151
47
182
164
50
196
180
49
208
192
62
217
205
72
210
201
75
190
182
79
158
147
66
146
127
47
194
176
72
223
209
68
234
221
43
239
227
35
239
233
18
238
232
16
239
228
66
211
197
83
212
193
137
178
157
129
105
86
68
79
64
54
75
63
60
52
40
39
79
67
64
95
76
61
88
72
23
112
81
29
136
98
42
128
91
30
130
92
35
114
77
23
110
78
30
103
74
25
103
79
29
87
69
27
72
58
24
60
50
14
62
57
19
66
66
23
62
67
16
69
72
17
73
75
9
89
88
16
101
99
26
108
104
32
103
98
27
102
96
26
106
98
29
105
97
28
101
92
26
95
87
22
92
85
20
88
81
17
86
79
17
85
79
19
86
77
20
93
78
30
96
76
36
100
80
41
110
90
47
117
99
47
128
111
49
140
124
49
153
137
47
170
153
48
188
167
46
208
190
56
215
199
64
207
198
69
187
182
62
158
150
53
134
120
40
173
151
63
218
196
73
228
212
48
235
221
26
239
225
27
237
228
15
236
228
24
234
219
69
206
189
90
218
199
149
152
134
109
82
64
52
94
77
72
61
47
45
63
54
53
58
46
47
72
51
44
101
85
37
108
77
29
121
89
36
110
75
22
116
81
27
116
81
27
109
76
22
106
78
22
96
73
16
81
61
16
65
48
19
84
72
41
63
55
24
73
70
37
68
66
28
65
63
23
71
71
16
74
76
8
88
87
19
106
99
33
105
102
31
105
99
29
111
101
32
110
99
34
109
97
39
107
93
41
107
90
37
105
87
34
101
86
31
101
86
31
103
84
29
104
82
22
109
86
22
122
100
35
138
116
44
145
125
43
153
134
43
162
142
43
176
158
46
191
175
50
208
190
53
214
199
65
207
195
66
185
177
65
147
144
44
128
113
27
157
135
51
205
182
76
225
205
52
234
215
23
238
222
12
243
226
25
243
229
26
237
225
41
231
213
79
217
195
115
227
208
162
120
106
80
69
52
46
54
38
36
59
40
39
51
44
43
70
56
61
74
54
53
137
127
84
106
79
35
117
90
41
103
71
22
109
76
27
112
79
28
111
78
24
105
78
21
100
77
20
90
70
25
61
44
15
57
41
16
95
81
57
77
69
43
76
72
42
72
69
39
63
62
18
64
70
10
69
71
12
90
88
30
102
100
33
111
104
38
113
102
37
114
104
35
113
103
35
113
100
35
117
98
34
117
99
27
115
97
22
116
95
19
132
108
23
152
127
28
176
153
39
193
171
47
199
178
47
200
181
41
203
185
35
206
189
38
215
198
49
215
199
52
210
195
55
197
184
63
180
168
64
145
132
51
119
109
44
137
118
42
201
177
74
227
205
59
234
214
27
241
221
8
242
222
10
242
221
28
241
224
39
237
220
70
221
197
100
230
204
148
209
190
153
104
89
65
79
62
56
78
61
59
51
32
31
51
43
42
59
45
50
105
87
89
198
186
143
116
90
52
95
71
27
91
63
17
104
73
28
107
75
29
114
82
32
101
74
22
89
68
12
92
75
26
83
66
30
62
44
15
78
61
41
59
45
26
65
58
34
78
74
48
63
63
30
56
62
16
62
64
15
71
69
18
87
85
25
103
97
35
108
99
36
112
102
32
119
112
25
139
132
36
158
145
51
165
152
45
171
157
42
181
163
45
200
178
54
211
188
54
219
197
53
218
198
42
220
202
37
221
204
32
221
205
26
222
205
31
220
201
44
211
192
53
192
180
58
170
157
61
133
119
41
122
105
38
126
109
47
181
159
70
227
201
77
235
212
41
239
216
16
244
221
15
241
218
25
239
220
33
237
221
48
228
209
83
224
199
129
243
218
178
183
163
134
83
69
46
52
37
28
66
51
49
79
62
60
66
57
59
68
58
66
70
55
58
228
216
172
169
146
108
89
68
27
85
63
19
85
56
14
103
72
30
112
82
38
87
63
16
83
65
15
89
73
23
92
75
33
71
51
17
55
37
11
54
40
22
61
51
30
68
64
39
73
75
47
61
64
31
54
54
16
59
55
13
67
65
14
87
82
27
99
91
32
104
96
31
118
111
32
141
135
46
162
154
59
177
167
58
190
178
56
194
181
51
201
184
49
209
188
53
214
192
53
211
190
41
213
194
37
213
194
37
210
190
34
208
188
40
199
180
50
181
164
55
153
138
53
126
108
45
111
93
32
116
95
26
158
135
51
210
186
76
230
205
57
231
207
24
238
211
19
240
214
36
237
215
44
237
221
38
231
215
63
216
195
106
233
208
164
240
215
188
136
116
88
99
79
51
100
78
59
70
48
38
51
37
34
49
38
42
68
60
70
47
30
38
232
224
178
220
200
159
123
107
67
78
61
15
89
66
22
89
63
22
97
72
31
71
51
8
71
55
10
82
65
19
82
65
19
83
65
25
79
61
29
57
44
21
57
48
29
43
38
19
67
68
46
72
74
49
68
66
38
61
56
24
59
55
14
69
62
16
86
77
28
96
90
37
97
92
34
101
96
34
111
104
33
122
113
29
136
124
30
143
130
30
152
134
32
164
144
42
170
152
47
170
154
38
175
159
41
177
160
49
174
156
54
169
151
57
149
132
51
129
114
46
109
89
43
105
83
44
108
88
35
142
118
35
201
178
62
218
194
59
227
205
36
232
210
13
239
213
18
242
215
45
241
215
63
235
216
54
223
203
79
223
199
131
249
222
185
221
195
177
111
89
71
89
70
46
74
54
37
69
48
40
44
29
25
39
28
32
40
31
42
65
53
63
234
227
176
236
221
173
192
176
129
96
78
31
87
66
19
96
74
32
87
65
26
73
57
17
60
46
4
82
66
25
81
66
23
87
68
27
81
62
26
64
49
18
47
35
12
27
19
4
45
42
30
65
60
44
78
72
51
65
58
33
57
52
20
56
50
13
64
58
17
75
74
27
88
84
35
93
86
34
97
86
33
98
86
29
101
87
26
106
90
26
108
91
26
109
94
25
111
99
23
116
105
21
118
108
26
123
111
37
124
111
45
119
105
48
109
95
39
99
82
32
102
80
39
108
85
34
136
113
39
193
171
60
222
200
59
226
202
49
235
212
31
240
220
14
240
217
11
242
215
34
242
214
71
233
204
85
223
191
118
239
211
173
233
207
176
149
126
106
87
66
56
98
84
71
80
67
58
54
41
38
68
57
56
45
34
38
44
34
42
41
35
42
237
229
176
238
225
173
229
211
161
144
125
79
83
63
14
88
67
24
91
70
31
83
67
27
64
50
10
74
59
22
74
59
22
72
53
17
66
48
13
65
51
19
53
41
15
40
31
13
35
30
19
33
27
16
58
52
35
70
65
44
64
60
35
55
51
22
50
47
13
52
52
9
63
59
12
77
69
20
87
77
26
89
78
27
91
79
27
95
82
27
98
84
30
101
87
35
101
87
35
102
89
32
107
92
38
109
92
44
103
87
43
95
80
36
92
73
30
102
80
27
104
83
13
127
106
10
192
170
50
223
204
50
233
214
37
237
215
36
239
219
32
239
223
13
237
219
14
232
209
38
222
195
80
231
200
128
246
214
164
239
214
173
154
133
102
94
74
55
53
36
26
47
35
28
55
44
39
46
35
34
91
81
81
78
68
71
47
37
44
41
36
42
238
230
176
239
226
174
241
223
172
192
173
124
84
64
17
85
63
21
86
65
26
74
58
17
82
68
30
68
52
19
61
45
12
72
56
23
79
65
33
68
58
30
58
48
20
39
31
6
23
18
3
25
23
14
25
24
10
49
49
31
58
58
41
62
62
41
54
55
29
47
46
9
54
49
8
65
57
12
67
61
14
69
63
16
73
66
19
78
68
22
82
72
26
83
73
30
81
71
27
82
73
24
85
71
26
87
69
32
90
71
38
96
75
41
102
75
47
109
83
29
125
103
9
187
166
40
229
209
49
237
219
30
239
220
15
244
222
22
239
225
29
238
223
36
235
217
58
217
196
74
215
190
120
242
216
178
238
213
177
190
164
134
113
90
71
75
58
44
54
42
35
36
28
23
51
45
42
34
26
29
35
26
26
52
42
46
62
51
59
57
52
58
236
225
170
241
225
172
241
221
168
226
206
155
106
87
46
75
53
12
87
66
29
73
56
21
77
62
28
72
56
24
50
33
6
62
45
20
53
40
13
61
53
25
61
55
29
67
61
33
32
26
8
23
20
8
32
28
16
32
28
16
32
30
17
57
55
38
63
61
39
56
51
23
51
47
14
50
44
7
56
48
9
63
55
16
67
60
21
67
62
22
75
69
25
75
69
24
76
67
23
78
65
22
82
68
26
85
67
28
94
73
37
98
76
33
107
81
36
128
103
26
190
167
56
229
212
55
236
223
33
238
224
22
237
222
18
241
225
24
236
219
38
229
209
71
227
207
110
236
215
153
242
218
182
237
217
184
203
187
152
114
94
69
106
86
74
69
54
48
42
31
29
44
36
34
76
69
67
50
43
41
46
37
36
36
25
29
61
51
58
40
35
41
232
220
165
238
222
167
241
220
167
233
213
161
132
114
73
78
56
14
84
62
25
70
52
18
78
63
30
72
56
25
65
48
22
66
51
27
47
38
13
44
40
12
64
59
34
67
61
33
46
39
21
29
21
10
42
34
24
48
40
29
29
21
10
48
41
26
63
56
37
62
56
34
62
57
30
58
53
22
56
50
20
54
48
17
59
54
24
59
57
24
63
62
23
66
64
19
71
67
18
76
66
19
78
65
23
86
70
28
95
74
30
101
79
27
133
113
29
189
170
47
230
216
58
235
227
35
239
233
25
232
226
26
231
220
46
231
217
61
228
211
75
225
205
117
236
215
166
238
217
192
242
219
199
208
189
161
120
105
79
80
67
50
52
38
31
41
29
27
72
65
67
61
54
54
69
61
59
62
54
52
78
68
68
78
68
71
54
44
51
47
42
48
226
214
159
231
214
160
236
215
162
232
212
160
149
130
88
69
47
5
80
59
22
70
53
19
75
60
28
66
50
19
65
48
21
64
52
29
57
52
31
29
29
5
43
39
16
49
44
17
31
24
7
59
46
37
33
20
11
33
20
11
50
38
30
74
62
49
44
33
16
54
47
29
63
57
34
70
65
40
67
64
41
60
58
35
57
56
34
50
52
27
52
54
24
57
58
22
63
61
23
68
62
24
79
67
30
86
70
26
98
79
25
135
116
51
201
185
78
235
218
85
236
226
70
238
231
61
232
224
61
224
216
77
225
213
103
233
216
132
237
218
148
237
220
170
234
217
183
234
217
196
214
196
183
150
131
114
85
68
56
46
39
34
44
37
35
29
21
23
54
50
55
66
60
60
57
49
48
52
44
42
54
45
44
68
58
62
60
50
57
51
46
52
223
205
153
228
206
151
235
210
152
232
210
156
158
139
95
70
52
12
79
59
26
68
53
24
50
35
7
78
62
32
72
56
27
59
45
20
57
48
29
37
33
16
58
52
36
32
25
8
45
38
23
53
40
25
64
50
35
57
43
28
52
38
23
68
53
38
48
34
17
70
60
39
79
64
46
78
61
44
76
66
46
75
71
49
69
71
47
63
70
44
64
66
41
64
58
35
71
61
37
86
76
48
117
102
74
151
134
100
165
149
103
200
181
123
220
205
116
221
209
104
231
220
111
230
217
118
230
215
129
230
216
153
238
221
174
239
221
186
236
220
185
236
220
186
233
217
184
235
218
193
154
136
122
82
63
56
48
39
34
33
32
36
53
48
54
32
27
33
28
24
29
53
46
44
37
30
27
57
50
48
37
28
30
49
39
43
42
32
36
48
42
50
216
198
142
224
202
143
230
205
143
226
205
145
168
148
103
67
49
14
61
45
16
63
51
26
38
27
4
66
53
27
64
52
26
58
46
22
47
37
18
30
25
8
34
27
16
31
22
13
34
26
16
21
17
3
51
48
33
49
46
31
31
20
7
47
36
23
70
58
46
49
39
23
60
45
25
78
60
39
78
64
45
80
71
50
78
71
50
79
70
49
87
72
54
104
85
61
153
133
102
194
174
137
219
200
164
226
208
170
223
206
163
231
212
176
231
215
165
233
217
165
235
218
169
238
221
175
234
216
175
238
220
182
238
219
190
239
220
196
240
223
194
234
218
189
231
214
187
207
190
169
91
73
58
72
53
42
56
49
39
31
32
30
26
21
27
19
14
20
62
57
63
36
28
36
52
43
51
73
64
72
61
51
55
76
65
69
58
48
52
47
42
46
206
188
128
213
191
128
222
197
130
217
196
133
170
151
106
57
39
10
40
27
2
66
57
35
53
45
23
67
58
34
33
23
2
45
34
11
36
26
6
50
45
27
49
44
25
62
55
37
47
40
23
42
34
25
34
27
17
41
33
23
35
27
17
56
47
37
63
55
45
32
20
8
79
65
44
81
64
39
65
47
31
74
60
43
89
79
60
84
74
55
99
84
66
141
124
101
179
161
133
208
191
158
215
198
159
225
207
168
230
212
175
232
217
178
231
217
174
231
216
182
232
216
187
234
218
188
235
219
187
232
213
181
238
218
189
240
220
194
231
213
189
216
199
174
189
172
152
137
119
105
86
68
50
75
57
41
57
49
36
30
31
24
61
56
58
64
59
62
35
30
35
45
36
40
60
51
54
46
36
40
46
35
39
38
27
31
53
42
46
31
26
26
206
180
126
211
182
125
217
185
126
212
186
132
168
145
104
65
44
15
62
45
23
64
47
24
52
38
12
57
45
19
47
34
13
51
40
19
48
38
12
68
59
28
69
61
28
73
64
38
50
38
23
83
70
61
41
30
22
67
55
46
67
55
42
72
60
46
40
29
17
52
40
28
60
48
35
41
29
18
48
35
26
63
51
41
62
50
39
63
57
41
81
71
51
79
60
39
104
83
59
108
87
63
141
121
94
155
135
107
168
148
120
204
185
153
233
213
181
237
217
186
235
214
186
236
216
188
233
213
184
239
219
190
184
163
141
154
136
117
133
120
98
88
75
53
59
45
24
52
37
23
43
28
19
45
31
21
50
38
27
49
37
30
106
96
94
119
110
108
54
44
42
59
47
47
53
39
41
69
55
56
53
35
38
55
37
40
76
58
61
67
53
55
205
183
132
208
182
128
208
180
124
207
184
133
162
143
105
54
38
12
48
35
16
49
36
17
67
56
34
52
43
21
40
29
12
39
28
12
44
34
12
74
64
37
71
63
30
64
55
27
48
36
20
73
60
51
42
30
22
75
63
54
61
49
37
39
27
13
36
25
12
35
27
17
38
31
21
34
26
17
34
26
18
28
20
12
35
24
17
24
16
6
50
41
25
54
35
20
66
49
33
64
47
31
81
64
45
66
49
29
77
60
40
102
87
62
163
149
118
221
207
169
230
216
180
227
213
178
222
207
173
191
176
147
90
75
52
61
46
25
48
38
18
35
25
5
35
25
6
31
21
6
31
20
10
50
38
27
79
66
55
68
56
48
52
38
35
57
42
42
53
39
38
54
41
38
66
53
50
75
62
59
83
66
64
66
48
46
67
50
49
64
50
47
198
182
134
199
178
128
199
176
125
195
178
131
158
144
109
48
37
16
36
27
10
45
36
19
51
44
25
43
38
19
25
20
6
21
13
4
42
32
16
64
55
34
59
50
28
37
27
12
25
13
7
38
27
19
39
29
22
39
29
20
47
36
24
61
51
39
52
42
30
57
53
44
72
69
61
43
39
33
18
14
9
20
16
11
23
16
11
25
18
9
47
37
26
83
68
57
61
47
38
46
32
24
82
69
59
35
23
11
43
30
17
54
42
20
71
61
29
144
136
96
172
163
127
152
144
108
125
116
83
80
71
43
61
51
25
46
36
15
45
38
23
67
60
47
93
87
73
136
130
114
123
116
104
62
52
40
78
65
54
72
59
52
53
38
35
68
51
51
71
56
55
64
52
46
49
38
32
41
30
24
49
35
30
49
34
29
52
38
32
85
75
68
184
175
129
185
171
127
187
170
127
181
171
129
149
141
111
47
41
24
52
47
33
36
32
17
43
40
24
39
37
22
46
44
33
49
44
37
23
16
7
30
24
10
26
20
5
52
45
34
62
53
45
28
21
13
67
61
53
54
47
40
29
22
14
61
54
46
32
26
18
44
42
32
39
36
31
25
21
19
26
23
18
39
36
32
39
34
28
48
42
32
59
53
40
78
70
56
39
31
21
34
24
20
43
34
32
34
24
18
57
49
38
67
56
41
54
43
26
49
40
15
46
36
12
51
41
17
54
45
22
41
35
13
39
33
15
46
39
28
126
119
108
189
181
171
213
206
193
210
203
187
212
205
189
147
139
125
73
61
50
86
73
66
52
38
35
66
53
52
66
60
56
65
56
54
62
52
50
71
61
59
74
64
62
59
49
47
71
61
59
69
66
62
